<?xml version="1.0" standalone="no"?>
<!DOCTYPE svg PUBLIC "-//W3C//DTD SVG 20010904//EN"
 "http://www.w3.org/TR/2001/REC-SVG-20010904/DTD/svg10.dtd">
<svg version="1.0" xmlns="http://www.w3.org/2000/svg"
 width="1024.000000pt" height="1024.000000pt" viewBox="0 0 1024.000000 1024.000000"
 preserveAspectRatio="xMidYMid meet">
<metadata>
Created by potrace 1.11, written by Peter Selinger 2001-2013
</metadata>
<g transform="translate(0.000000,1024.000000) scale(0.100000,-0.100000)"
fill="#000000" stroke="none">
<path d="M4919 10236 c-2 -2 -38 -7 -79 -10 -95 -8 -123 -12 -245 -31 -57 -9
-200 -42 -265 -60 -30 -9 -62 -17 -70 -19 -8 -1 -22 -5 -30 -8 -14 -6 -148
-51 -160 -53 -3 -1 -16 -6 -30 -12 -14 -6 -54 -23 -90 -38 -82 -34 -268 -125
-340 -166 -102 -59 -353 -230 -380 -259 -3 -3 -30 -25 -60 -50 -127 -104 -316
-295 -397 -401 -20 -27 -41 -49 -45 -49 -4 0 -8 -7 -8 -15 0 -8 -4 -15 -10
-15 -5 0 -10 -7 -10 -15 0 -8 -4 -15 -8 -15 -8 0 -72 -85 -72 -95 0 -3 -10
-16 -21 -29 -12 -14 -27 -34 -33 -45 -6 -11 -29 -51 -52 -88 -66 -109 -126
-223 -117 -223 4 0 3 -4 -4 -8 -10 -6 -50 -87 -54 -110 -1 -4 -10 -24 -20 -44
-10 -21 -19 -44 -19 -53 0 -8 -4 -15 -9 -15 -5 0 -11 -14 -15 -31 -3 -17 -12
-45 -20 -62 -35 -75 -112 -370 -131 -495 -2 -15 -7 -43 -10 -62 -5 -36 -10
-75 -21 -165 -3 -27 -7 -91 -9 -141 -1 -50 -5 -97 -9 -103 -4 -6 -3 -11 2 -11
5 0 6 -17 2 -40 -4 -22 -3 -43 1 -46 5 -3 5 -14 -1 -24 -6 -12 -7 -21 0 -25 6
-3 6 -15 0 -30 -6 -16 -5 -25 3 -29 9 -3 9 -5 -1 -5 -9 -1 -10 -6 -2 -20 7
-13 7 -22 0 -26 -7 -4 -7 -12 0 -25 7 -13 7 -21 0 -25 -6 -4 -7 -13 -2 -23 9
-19 8 -54 -2 -71 -4 -6 -2 -11 4 -11 8 0 8 -6 0 -20 -8 -14 -8 -20 0 -20 8 0
8 -6 0 -20 -8 -14 -8 -20 0 -20 7 0 7 -7 -1 -22 -7 -13 -11 -25 -10 -28 2 -3
7 -13 12 -22 6 -10 5 -19 -1 -23 -6 -4 -7 -13 -1 -23 6 -11 6 -24 0 -34 -6
-10 -6 -19 0 -23 7 -3 7 -15 1 -30 -6 -15 -6 -27 0 -30 6 -3 6 -15 0 -30 -6
-16 -6 -25 1 -25 6 0 6 -7 -1 -19 -6 -12 -6 -22 -1 -25 5 -3 5 -21 1 -41 -4
-19 -4 -35 0 -35 5 0 5 -14 0 -30 -5 -19 -5 -28 1 -25 5 4 5 -4 -1 -19 -5 -14
-6 -26 -2 -26 4 0 7 -11 7 -25 0 -14 -3 -25 -7 -25 -4 0 -3 -11 2 -25 6 -15 6
-26 -1 -30 -5 -4 -6 -13 -1 -22 5 -8 6 -33 2 -54 -4 -21 -4 -39 1 -39 4 0 4
-14 -1 -30 -5 -19 -5 -28 1 -25 5 4 5 -4 -1 -19 -5 -14 -6 -26 -2 -26 4 0 7
-11 7 -25 0 -14 -3 -25 -7 -25 -4 0 -4 -10 1 -22 5 -13 5 -33 0 -45 -5 -14 -5
-23 1 -23 5 0 7 -7 4 -15 -5 -11 -22 -14 -75 -12 -38 1 -69 -1 -69 -5 0 -4 -6
-5 -12 -3 -20 8 -168 11 -168 4 0 -4 -18 -3 -40 1 -22 4 -40 4 -40 0 0 -4 -16
-4 -34 0 -19 4 -37 6 -40 3 -2 -2 -37 -6 -78 -9 -80 -4 -115 -9 -138 -18 -8
-3 -27 -7 -42 -10 -15 -2 -65 -20 -113 -39 -173 -71 -342 -210 -438 -362 -17
-27 -35 -53 -40 -56 -5 -3 -8 -9 -8 -13 1 -3 -10 -31 -24 -61 -14 -31 -25 -61
-25 -68 0 -7 -4 -17 -9 -22 -5 -6 -17 -41 -27 -80 -18 -67 -19 -171 -21 -2120
-2 -2014 -2 -2051 17 -2135 22 -92 27 -114 30 -117 2 -2 3 -6 4 -10 0 -5 14
-37 30 -73 32 -71 81 -151 136 -219 30 -39 52 -61 124 -126 36 -32 98 -75 146
-102 64 -35 213 -94 250 -98 14 -2 45 -8 70 -14 31 -7 1190 -10 3665 -10 3753
0 3625 -1 3785 35 34 7 148 53 186 75 17 9 42 23 55 31 85 47 223 179 291 278
47 68 108 188 108 213 0 7 3 17 7 21 5 4 9 12 9 17 1 5 2 10 4 12 3 4 9 31 25
116 13 74 15 322 15 2095 -1 2173 3 2003 -43 2193 -2 7 -6 16 -10 19 -4 4 -7
13 -7 20 0 36 -104 221 -159 284 -70 78 -154 160 -166 160 -3 0 -29 16 -58 36
-56 39 -168 94 -190 94 -7 0 -17 3 -21 7 -3 4 -12 8 -19 10 -7 1 -46 11 -87
20 -46 12 -112 18 -172 18 -54 0 -98 2 -98 5 0 3 -20 5 -45 5 -25 0 -45 -3
-45 -6 0 -4 -18 -3 -40 1 -22 4 -40 4 -40 0 0 -4 -16 -4 -35 0 -19 4 -37 4
-40 0 -2 -4 -23 -4 -45 0 -22 4 -40 4 -40 -1 0 -5 -10 -5 -22 0 -13 4 -29 6
-36 4 -15 -6 -33 38 -21 52 4 6 4 17 -1 25 -5 8 -5 21 1 31 6 11 5 20 -1 24
-6 4 -6 15 0 30 6 15 6 25 0 25 -5 0 -5 12 0 30 5 19 5 30 -1 30 -6 0 -6 7 1
19 6 12 6 22 1 26 -10 5 -7 37 4 55 3 6 1 10 -5 10 -8 0 -8 6 0 20 8 14 8 20
0 20 -8 0 -8 6 0 20 8 14 8 20 0 20 -7 0 -8 6 -1 18 11 21 11 33 0 54 -6 10
-5 19 1 23 6 4 7 13 1 23 -6 11 -6 24 0 35 7 11 6 17 -1 17 -7 0 -8 6 -1 18 6
11 6 24 0 34 -6 11 -6 19 1 23 7 4 7 12 0 25 -7 13 -7 21 0 25 6 4 7 13 2 23
-9 19 -8 54 2 71 4 6 2 11 -4 11 -8 0 -8 6 0 20 8 14 8 20 0 20 -8 0 -8 6 0
20 8 14 8 20 0 20 -7 0 -8 6 -1 18 11 21 11 33 0 54 -6 10 -5 19 1 23 6 4 7
13 1 23 -6 11 -6 24 0 34 6 10 6 19 0 23 -7 3 -7 15 -1 30 6 15 6 27 0 30 -6
3 -6 15 0 30 6 16 6 25 -1 25 -6 0 -6 7 1 19 6 12 6 22 1 25 -5 3 -5 21 -1 41
4 19 4 35 0 35 -5 0 -5 14 0 30 5 19 5 28 -1 25 -5 -4 -5 4 1 19 6 16 6 26 0
26 -6 0 -6 9 0 24 5 13 6 26 3 29 -2 3 -7 52 -9 109 -3 57 -5 110 -5 118 -1 8
-5 42 -9 75 -5 33 -11 80 -14 105 -18 134 -70 363 -103 450 -3 8 -8 24 -10 35
-1 11 -7 29 -12 40 -5 11 -22 54 -36 95 -26 70 -49 124 -113 260 -23 49 -113
214 -145 264 -21 33 -139 209 -148 220 -5 6 -28 36 -52 66 -23 30 -51 65 -62
76 -11 12 -42 47 -68 77 -98 113 -244 249 -392 364 -44 34 -87 68 -95 75 -9 7
-28 19 -43 27 -15 8 -35 21 -45 30 -21 18 -28 23 -137 88 -104 62 -282 153
-298 153 -7 0 -18 5 -25 12 -6 6 -18 13 -25 14 -7 1 -35 12 -62 24 -51 23
-204 78 -239 85 -11 3 -40 11 -65 19 -25 8 -59 18 -76 22 -16 4 -32 8 -35 9
-3 0 -23 5 -45 10 -22 4 -47 10 -55 12 -21 5 -48 10 -95 17 -22 3 -51 8 -65
11 -14 3 -50 8 -80 11 -30 2 -66 7 -80 10 -29 6 -495 15 -501 10z m416 -1610
c22 -4 56 -11 75 -16 19 -5 51 -12 70 -15 19 -3 40 -11 47 -17 7 -6 13 -8 13
-4 0 3 23 -3 50 -13 28 -11 50 -16 50 -13 0 4 4 1 8 -6 5 -7 18 -14 30 -17 21
-4 161 -73 172 -85 3 -3 21 -14 40 -24 19 -11 40 -24 45 -28 139 -111 180
-146 234 -202 34 -36 61 -66 57 -66 -3 0 5 -11 17 -24 84 -92 216 -330 244
-441 1 -5 13 -53 27 -105 28 -103 38 -173 40 -262 1 -32 5 -58 9 -58 4 0 3 -9
-3 -19 -7 -13 -7 -22 0 -26 7 -4 7 -12 0 -25 -7 -13 -7 -21 0 -25 7 -4 7 -13
0 -26 -6 -10 -7 -19 -3 -19 10 0 8 -63 -2 -79 -3 -6 -1 -11 5 -11 8 0 8 -6 0
-20 -8 -14 -8 -20 0 -20 8 0 8 -6 0 -20 -8 -14 -8 -20 0 -20 7 0 8 -6 1 -17
-11 -22 -11 -34 0 -55 6 -10 5 -19 -1 -23 -7 -4 -7 -12 -1 -23 6 -10 6 -23 0
-34 -7 -12 -6 -18 1 -18 7 0 8 -6 1 -17 -6 -11 -6 -24 0 -35 6 -10 5 -19 -1
-23 -7 -4 -7 -12 0 -25 7 -13 7 -21 0 -25 -6 -4 -7 -11 -4 -17 10 -17 11 -51
2 -70 -6 -12 -5 -18 2 -18 8 0 8 -6 0 -20 -8 -14 -8 -20 0 -20 8 0 8 -6 0 -20
-8 -14 -8 -20 0 -20 6 0 8 -5 5 -11 -9 -13 -12 -79 -5 -79 7 0 3 -77 -5 -90
-3 -6 -3 -10 2 -10 4 0 8 -11 8 -25 0 -14 -3 -25 -7 -25 -4 0 -3 -11 2 -25 6
-15 6 -26 -1 -30 -5 -4 -6 -13 -1 -22 5 -8 6 -33 2 -54 -4 -21 -4 -39 -1 -39
8 0 4 -76 -4 -90 -3 -6 -3 -10 2 -10 4 0 8 -11 8 -25 0 -14 -3 -25 -7 -25 -4
0 -4 -10 1 -22 5 -13 5 -33 0 -45 -5 -14 -5 -23 1 -23 5 0 7 -7 4 -15 -4 -10
-19 -15 -38 -15 -17 0 -40 0 -51 0 -11 0 -42 0 -68 0 -27 0 -53 -2 -58 -5 -5
-4 -9 -2 -9 3 0 5 -20 6 -45 2 -25 -4 -45 -4 -45 0 0 4 -18 4 -40 0 -22 -4
-40 -5 -40 -1 0 7 -78 6 -86 -1 -2 -3 -22 -2 -44 2 -22 4 -40 4 -40 0 0 -4
-18 -4 -40 0 -22 4 -43 4 -45 -1 -3 -4 -18 -4 -34 1 -15 4 -34 4 -41 0 -6 -4
-28 -4 -49 1 -20 4 -38 8 -41 7 -3 -1 -20 -5 -38 -9 -17 -4 -34 -3 -37 1 -3 4
-21 4 -40 0 -19 -4 -37 -4 -40 0 -3 4 -21 4 -40 0 -19 -4 -37 -4 -40 0 -3 4
-21 4 -40 0 -19 -4 -37 -4 -40 0 -3 4 -21 4 -40 0 -19 -4 -37 -4 -40 0 -3 4
-21 4 -40 0 -19 -4 -37 -4 -40 0 -3 4 -21 4 -40 0 -20 -4 -38 -4 -41 1 -3 5
-9 7 -14 4 -12 -7 -128 -10 -135 -3 -3 2 -24 2 -48 -2 -23 -3 -57 -3 -75 1
-18 4 -34 3 -37 -1 -2 -4 -22 -4 -42 -1 -21 4 -53 4 -71 0 -18 -3 -34 -3 -37
1 -3 4 -21 4 -40 0 -19 -4 -35 -4 -35 0 0 4 -18 4 -40 0 -22 -4 -42 -4 -45 0
-3 4 -23 4 -45 0 -22 -4 -40 -4 -40 0 0 4 -17 4 -37 1 -21 -4 -59 -4 -85 -1
-27 4 -48 3 -48 0 0 -4 -18 -4 -40 0 -22 4 -40 4 -40 -1 0 -5 -6 -6 -13 -3
-20 7 -147 10 -147 3 0 -4 -18 -3 -40 1 -22 4 -40 4 -40 0 0 -4 -15 -4 -34 0
-19 4 -39 4 -46 0 -7 -4 -27 -4 -46 0 -19 4 -34 4 -34 0 0 -4 -18 -4 -40 0
-22 4 -40 4 -40 0 0 -4 -16 -4 -36 -1 -26 4 -39 13 -45 29 -6 15 -5 21 1 17 7
-4 7 3 0 19 -6 17 -6 26 1 26 6 0 6 7 -1 19 -5 11 -6 22 -1 25 9 6 7 48 -3 65
-4 5 -2 12 4 16 7 4 7 12 1 23 -6 10 -6 23 0 34 7 12 6 18 -1 18 -7 0 -8 6 -1
17 6 11 6 24 0 35 -6 10 -5 19 1 23 7 4 7 12 0 25 -7 13 -7 21 0 25 6 4 7 11
4 17 -10 17 -11 51 -2 71 6 11 5 17 -2 17 -8 0 -8 6 0 20 8 14 8 20 0 20 -8 0
-8 6 0 20 8 14 8 20 0 20 -6 0 -8 5 -5 11 9 13 12 79 5 79 -7 0 -3 77 5 90 3
6 3 10 -2 10 -4 0 -8 11 -8 25 0 14 3 25 7 25 4 0 3 11 -2 25 -6 15 -6 26 1
30 5 4 6 13 1 22 -5 8 -6 33 -2 54 4 21 4 39 1 39 -8 0 -4 76 4 90 3 6 3 10
-2 10 -4 0 -8 11 -8 25 0 14 3 25 7 25 4 0 3 11 -2 25 -6 15 -6 26 1 30 6 4 6
13 0 23 -5 9 -5 26 0 39 5 13 4 25 -1 28 -7 4 -6 13 0 26 6 10 7 19 3 19 -9 0
-8 73 1 97 3 7 1 13 -5 13 -6 0 -7 5 -3 11 4 7 8 39 10 73 1 34 3 61 4 61 1 0
3 16 5 35 2 19 6 49 10 65 3 17 8 39 10 50 2 11 11 45 20 75 9 30 17 60 18 65
18 74 106 247 181 360 69 102 229 269 326 338 36 26 70 51 75 55 6 5 42 25 80
46 39 21 75 42 80 46 6 5 12 8 15 8 5 1 23 7 108 41 28 11 87 30 130 41 79 21
95 24 172 35 25 4 46 8 48 10 6 5 328 -3 367 -9z"/>
</g>
</svg>
